<svg xmlns="http://www.w3.org/2000/svg" viewBox="0 0 328.15 125.58"><title>mineralTech</title><path d="M135.44,305.86,124.73,266v35.44a5.13,5.13,0,0,0,.3,2,2.34,2.34,0,0,0,1.06,1.1v1.35h-8.53V304.5a2.34,2.34,0,0,0,1.06-1.1,5.14,5.14,0,0,0,.3-2V252.53a5,5,0,0,0-.3-1.95,2.35,2.35,0,0,0-1.06-1.1v-1.35h11.2v1.35q-1,.51-1,2.33a7.54,7.54,0,0,0,.3,1.95L136,283.6l8-29.33a12.24,12.24,0,0,0,.53-2.83q0-1.73-1.06-1.95v-1.35h11v1.35a2.34,2.34,0,0,0-1.06,1.1,5,5,0,0,0-.3,1.95v48.89a5.13,5.13,0,0,0,.3,2,2.33,2.33,0,0,0,1.06,1.1v1.35h-9.06V304.5a2.19,2.19,0,0,0,1.05-1.08,5.14,5.14,0,0,0,.31-2V266Z" transform="translate(-105.04 -245.42)"/><path d="M166.2,262.8v38.7a5.29,5.29,0,0,0,.3,2,2.52,2.52,0,0,0,1.06,1.16v1.18h-8.43v-1.18a2.18,2.18,0,0,0,1.05-1.1,5.32,5.32,0,0,0,.31-2V262.81a5.14,5.14,0,0,0-.3-2,2.56,2.56,0,0,0-1.06-1.14v-1.18h8.43v1.18a2.32,2.32,0,0,0-1.06,1.12A5.3,5.3,0,0,0,166.2,262.8Z" transform="translate(-105.04 -245.42)"/><path d="M178.31,274.65v26.86a5.29,5.29,0,0,0,.31,2,2.38,2.38,0,0,0,1.05,1.14v1.18h-7.92v-1.18a2.18,2.18,0,0,0,1.05-1.1,5.32,5.32,0,0,0,.31-2V262.81a5.14,5.14,0,0,0-.3-2,2.56,2.56,0,0,0-1.06-1.14v-1.18h9.15v1.18a1.68,1.68,0,0,0-.94,1.65,5.42,5.42,0,0,0,.68,2.37l12.78,25.21V262.81a5.32,5.32,0,0,0-.3-2,2.32,2.32,0,0,0-1.06-1.12v-1.18H200v1.18a2.32,2.32,0,0,0-1.06,1.12,5.3,5.3,0,0,0-.3,2v38.7a5.29,5.29,0,0,0,.3,2,2.52,2.52,0,0,0,1.06,1.16v1.18h-8.54v-1.18a1.5,1.5,0,0,0,.94-1.55,3.24,3.24,0,0,0-.26-1.22q-.26-.63-1.17-2.48Z" transform="translate(-105.04 -245.42)"/><path d="M211.22,285.73v11.55h15.13a1.12,1.12,0,0,0,1-.58,6.16,6.16,0,0,0,.56-2.12h.6v14h-.6a5.93,5.93,0,0,0-.55-2.09,1.13,1.13,0,0,0-1-.61H204.16v-1.18a2.18,2.18,0,0,0,1.05-1.1,5.32,5.32,0,0,0,.31-2V262.81a5.14,5.14,0,0,0-.3-2,2.56,2.56,0,0,0-1.06-1.14v-1.18h21.53a1.13,1.13,0,0,0,1-.59,6.21,6.21,0,0,0,.56-2.11h.57v14h-.57a6.15,6.15,0,0,0-.56-2.12,1.13,1.13,0,0,0-1-.58H211.22v10.4h9a1.11,1.11,0,0,0,1-.59,6.47,6.47,0,0,0,.58-2.11h.57v13.66h-.57a6.3,6.3,0,0,0-.56-2.1,1.13,1.13,0,0,0-1-.6Z" transform="translate(-105.04 -245.42)"/><path d="M239.18,286.4v15.11a5.29,5.29,0,0,0,.3,2,2.53,2.53,0,0,0,1.06,1.16v1.18h-8.43v-1.18a2.18,2.18,0,0,0,1.05-1.1,5.32,5.32,0,0,0,.31-2V262.81a5.14,5.14,0,0,0-.3-2,2.56,2.56,0,0,0-1.06-1.14v-1.18h15.62a13.54,13.54,0,0,1,4.64.61,6.69,6.69,0,0,1,2.85,2.22q2.57,3.34,2.57,10.91a20.79,20.79,0,0,1-1.58,9,9.43,9.43,0,0,1-5.12,4.67l4.51,12.49a31.51,31.51,0,0,0,2,4.71,3.38,3.38,0,0,0,1.67,1.58v1.18h-10v-1.18a2,2,0,0,0,1.11-1.9,9.43,9.43,0,0,0-.68-2.83l-4.76-13.54Zm0-8.58h8.6a4.21,4.21,0,0,0,2.89-.85q1.32-1.14,1.32-4.52,0-3-.93-4.19a4,4,0,0,0-3.29-1.18h-8.6Z" transform="translate(-105.04 -245.42)"/><path d="M281.17,294h-11L269,299.18a13.38,13.38,0,0,0-.45,2.92q0,2,1.36,2.58v1.18h-8.76v-1.18a2,2,0,0,0,1.2-1,14,14,0,0,0,.93-2.83l8.7-35a14.78,14.78,0,0,0,.49-3.47,3.3,3.3,0,0,0-1.19-2.71v-1.18h9.26v1.18a3.45,3.45,0,0,0-1.17,2.88,13.92,13.92,0,0,0,.53,3.43l9,34a22,22,0,0,0,1.17,3.58,2.37,2.37,0,0,0,1.3,1.15v1.18h-9.73v-1.18q1.38-.46,1.38-2.57a12.69,12.69,0,0,0-.53-3.24Zm-1.72-6.64-3.9-15.23-3.71,15.23Z" transform="translate(-105.04 -245.42)"/><path d="M300.42,297.27h13.34a1.11,1.11,0,0,0,1-.58,6.64,6.64,0,0,0,.57-2.12h.58v14h-.58a6.2,6.2,0,0,0-.56-2.11,1.13,1.13,0,0,0-1-.59h-20.4v-1.18a2.18,2.18,0,0,0,1.05-1.1,5.32,5.32,0,0,0,.31-2V262.81a5.14,5.14,0,0,0-.3-2,2.56,2.56,0,0,0-1.06-1.14v-1.18h8.43v1.18a2.32,2.32,0,0,0-1.06,1.12,5.31,5.31,0,0,0-.3,2Z" transform="translate(-105.04 -245.42)"/><path d="M334.16,257.65v43.77a5.14,5.14,0,0,0,.3,2,2.34,2.34,0,0,0,1.06,1.1v1.35h-9.06V304.5a2.33,2.33,0,0,0,1.06-1.1,5.14,5.14,0,0,0,.3-2V257.65h-9a1.07,1.07,0,0,0-1,.58,6.32,6.32,0,0,0-.55,2.13h-.68V245.42h.68a6.86,6.86,0,0,0,.56,2.12,1.05,1.05,0,0,0,1,.58h24.36a1.09,1.09,0,0,0,1-.58,6.38,6.38,0,0,0,.55-2.12h.68v14.93h-.68a6.35,6.35,0,0,0-.55-2.13,1.09,1.09,0,0,0-1-.58Z" transform="translate(-105.04 -245.42)"/><path d="M355.33,285.73v11.55h15.13a1.11,1.11,0,0,0,1-.58,6.16,6.16,0,0,0,.56-2.12h.6v14H372a5.91,5.91,0,0,0-.55-2.09,1.13,1.13,0,0,0-1-.61H348.27v-1.18a2.18,2.18,0,0,0,1.05-1.1,5.32,5.32,0,0,0,.31-2V262.81a5.15,5.15,0,0,0-.3-2,2.57,2.57,0,0,0-1.06-1.14v-1.18H369.8a1.13,1.13,0,0,0,1-.59,6.23,6.23,0,0,0,.56-2.11H372v14h-.57a6.16,6.16,0,0,0-.56-2.12,1.13,1.13,0,0,0-1-.58H355.33v10.4h9a1.11,1.11,0,0,0,1-.59,6.48,6.48,0,0,0,.58-2.11h.57v13.66h-.57a6.31,6.31,0,0,0-.56-2.1,1.12,1.12,0,0,0-1-.6Z" transform="translate(-105.04 -245.42)"/><path d="M399.53,288.86l3.6,10.45-.49.72q-.51-.72-.81-.72t-1.68,1.56a22.33,22.33,0,0,1-5.15,4.69,10,10,0,0,1-5.15,1.31q-5.83,0-9.51-5.54a26.5,26.5,0,0,1-3.32-8,45.18,45.18,0,0,1-1.32-11.21,41.28,41.28,0,0,1,2.42-14.72q3.81-10,11.68-10a10.16,10.16,0,0,1,5.18,1.31,21.66,21.66,0,0,1,5.16,4.69q1.32,1.57,1.68,1.56t.81-.72l.49.76-3.6,10.36-.47-.67c0-.34,0-.55,0-.63q0-.38,0-.55,0-2.06-2.87-4.67a8.2,8.2,0,0,0-5.49-2.48q-3.87,0-6.38,4-2.87,4.56-2.87,11.68t2.87,11.73q2.53,4,6.38,4,3,0,6-3,2.34-2.37,2.34-4.14,0-.08-.06-1.18Z" transform="translate(-105.04 -245.42)"/><path d="M426.13,285.22H412.81V301.5a5.3,5.3,0,0,0,.3,2,2.53,2.53,0,0,0,1.06,1.16v1.18h-8.43v-1.18a2.18,2.18,0,0,0,1.05-1.1,5.32,5.32,0,0,0,.31-2V262.81a5.15,5.15,0,0,0-.3-2,2.57,2.57,0,0,0-1.06-1.14v-1.18h8.43v1.18a2.32,2.32,0,0,0-1.06,1.12,5.27,5.27,0,0,0-.3,2v13.84h13.32V262.8a5.29,5.29,0,0,0-.29-2,2.47,2.47,0,0,0-1.07-1.14v-1.18h8.43v1.18a2.32,2.32,0,0,0-1.06,1.12,5.29,5.29,0,0,0-.3,2v38.7a5.28,5.28,0,0,0,.3,2,2.52,2.52,0,0,0,1.06,1.16v1.18h-8.43v-1.18a2.18,2.18,0,0,0,1.05-1.1,5.33,5.33,0,0,0,.31-2Z" transform="translate(-105.04 -245.42)"/><path d="M149.27,335.33s107.67-38.33,219.67-4c0,0-24.67,2.33-27.33,4C341.61,335.33,264.61,307.67,149.27,335.33Z" transform="translate(-105.04 -245.42)" style="fill:#1b264c"/><path d="M339.9,339.47a349,349,0,0,0-167.27-6.33C131,341.84,105.29,355.42,105,355.56l.41.91a333.48,333.48,0,0,1,164-19c41.62,5.71,68,17.55,68.23,17.67l.23.11.22-.12c23.28-13.12,92.91-13.45,93.61-13.45l.09-1C367.71,328.51,342.27,338.45,339.9,339.47Z" transform="translate(-105.04 -245.42)" style="fill:#bababa"/><path d="M145.94,347.67s80.67-31.67,187,10.67c0,0-15.33,6.67-22,12.67C310.94,371,267.61,329.33,145.94,347.67Z" transform="translate(-105.04 -245.42)"/></svg>